<svg data-name="creative-commons" fill="currentColor" xmlns="http://www.w3.org/2000/svg" viewBox="0 0 20 20" width="20" height="20">
<path fill="currentColor" d="M9.98172 0C12.779 0 15.1605 0.976578 17.1246 2.9288C18.0647 3.86912 18.7794 4.94383 19.2675 6.15197C19.7553 7.36043 20 8.64295 20 10.0002C20 11.3692 19.7584 12.6521 19.2769 13.848C18.7947 15.0443 18.0831 16.1012 17.1431 17.0178C16.1671 17.9818 15.0599 18.7203 13.8215 19.2322C12.5836 19.7441 11.3036 20 9.98234 20C8.66107 20 7.39605 19.7475 6.1876 19.2409C4.97945 18.7353 3.896 18.0031 2.93755 17.045C1.97909 16.0868 1.25002 15.0062 0.750012 13.8037C0.250004 12.6011 0 11.3336 0 10.0002C0 8.67857 0.252816 7.40793 0.758762 6.1876C1.26471 4.96726 2.00003 3.87506 2.96411 2.91067C4.86883 0.97064 7.20793 0 9.98172 0ZM10.018 1.80378C7.73231 1.80378 5.80947 2.6016 4.24975 4.19663C3.4638 4.99445 2.85973 5.89009 2.43723 6.88417C2.01409 7.87825 1.80315 8.91701 1.80315 10.0005C1.80315 11.072 2.01409 12.1049 2.43723 13.0983C2.86004 14.093 3.4638 14.9799 4.24975 15.7596C5.03539 16.5396 5.92197 17.1343 6.91073 17.5456C7.89856 17.9562 8.93451 18.1615 10.018 18.1615C11.0892 18.1615 12.1274 17.9537 13.1346 17.5368C14.1405 17.1196 15.0474 16.519 15.8574 15.7334C17.4168 14.2096 18.1962 12.2989 18.1962 10.0008C18.1962 8.89358 17.9937 7.84606 17.589 6.85792C17.185 5.86978 16.5953 4.98914 15.8221 4.21475C14.214 2.60754 12.2799 1.80378 10.018 1.80378ZM9.89265 8.33982L8.55295 9.03639C8.40982 8.7392 8.2345 8.53045 8.02638 8.41138C7.81793 8.29263 7.62449 8.23294 7.44574 8.23294C6.55323 8.23294 6.10635 8.82201 6.10635 10.0008C6.10635 10.5364 6.21947 10.9645 6.44541 11.2861C6.67167 11.6077 7.00511 11.7686 7.44574 11.7686C8.02919 11.7686 8.43982 11.4827 8.67826 10.9114L9.91016 11.5364C9.64828 12.0249 9.28515 12.4086 8.82076 12.6883C8.35701 12.9683 7.84481 13.108 7.28511 13.108C6.39229 13.108 5.67165 12.8346 5.12414 12.2864C4.57663 11.7389 4.30288 10.977 4.30288 10.0011C4.30288 9.04858 4.57976 8.29294 5.13321 7.73325C5.68665 7.17386 6.38604 6.89386 7.23168 6.89386C8.47013 6.89323 9.35671 7.37543 9.89265 8.33982ZM15.6606 8.33982L14.339 9.03639C14.1962 8.7392 14.0202 8.53045 13.8121 8.41138C13.6033 8.29263 13.4036 8.23294 13.214 8.23294C12.3211 8.23294 11.8742 8.82201 11.8742 10.0008C11.8742 10.5364 11.9877 10.9645 12.2136 11.2861C12.4396 11.6077 12.7727 11.7686 13.214 11.7686C13.7968 11.7686 14.2077 11.4827 14.4455 10.9114L15.6956 11.5364C15.4221 12.0249 15.0527 12.4086 14.589 12.6883C14.1246 12.9683 13.6187 13.108 13.0711 13.108C12.1661 13.108 11.4433 12.8346 10.902 12.2864C10.3595 11.7389 10.0889 10.977 10.0889 10.0011C10.0889 9.04858 10.3655 8.29294 10.9195 7.73325C11.4727 7.17386 12.1721 6.89386 13.0174 6.89386C14.2555 6.89323 15.1371 7.37543 15.6606 8.33982Z"></path>
</svg>